<?xml version="1.0" encoding="utf-8"?>
<svg version="1.1" xmlns="http://www.w3.org/2000/svg" xmlns:xlink="http://www.w3.org/1999/xlink" x="0px" y="0px"
	 viewBox="0 0 400 400" style="enable-background:new 0 0 400 400;" xml:space="preserve">
<g>
	<path fill="#07844b" d="M350,400H50c-27.6,0-50-22.4-50-50V50C0,22.4,22.4,0,50,0h300c27.6,0,50,22.4,50,50v300
		C400,377.6,377.6,400,350,400z"></path>
</g>
<path fill="#FFFFFF" d="M321.1,59c-5.2,0.1-10,2.1-12.8,6.3l-43.6,82.2c3.3,1.1,10.5,4.4,34.7,15.3l0.4,0.2
	c4.2,1.9,7.4,3.3,8.6,3.8c0.5,0.2,0.8,0.5,1.3,0.7l31.8-88.1c2-7-3-15-11-18.2C327.5,59.6,324.3,58.9,321.1,59z M77,104.9
	c-12.7,0-23,10.4-23,23s10.4,23,23,23s23-10.4,23-23S89.7,104.9,77,104.9z M128.7,122.1c-6.4,0-11.5,5.2-11.5,11.5
	c0,6.4,5.2,11.5,11.5,11.5c6.4,0,11.5-5.3,11.5-11.6C140.3,127.2,135.1,122.1,128.7,122.1z M239,154.4c-11.2,0.8-20.8,6.4-27.7,16
	c4.4,7.4,11.9,16.3,22.6,16c2.8-0.1,5.2,1.9,5.7,4.6c2.2,3.4,15.5,9.4,19.4,7.9c1.6-0.6,3.4-0.5,4.8,0.4c1.5,0.8,2.6,2.3,2.9,4
	c0.3,0.9,2.7,4.3,7.9,6.6c4.1,1.9,8,2.4,10.3,1.3c1.5-0.7,3-0.7,4.4-0.2c1.5,0.5,2.8,1.7,3.5,3.3c3.9,9.4,21.6,10.2,33.8,9.2
	c1.8-7.7,1.3-15.7-1.5-23.2c-3.8-10.3-11.4-18.3-21.6-23c-1.1-0.5-4.5-2.1-9-4.2c-20.5-9.3-32.1-14.3-34.3-14.9
	C252.9,155.3,245.6,153.9,239,154.4z M120.1,162.3c-17.4,0-31.6,14.2-31.6,31.6s14.2,31.6,31.6,31.6s31.6-14.2,31.6-31.6
	C151.8,176.5,137.6,162.3,120.1,162.3z M205.2,182c-1.8,4.3-3.8,8.3-5.9,12.1c2.5,6,9.8,20,23.2,16.9c1.5-0.4,3.2-0.2,4.4,0.7
	c1.4,0.9,2.1,2.2,2.4,3.8c0.4,2.2,2.9,4.7,6.4,6.6c5,2.7,10.4,3.4,12.8,2.4c1.5-0.6,3.2-0.7,4.6,0c1.5,0.7,2.6,2,3.1,3.6
	c0.8,2.7,3.6,5.5,7.5,7.5c4.6,2.4,9.9,3.2,13.3,2c2.6-0.9,5.4,0.2,6.8,2.7c5.1,9.4,21.8,10.4,34.7,9.5c1.6-4.6,3.2-9.4,4.6-14.5
	c-1.5,0.1-3.2,0.2-4.8,0.2c-12.1,0-26.4-2.4-33.6-12.3c-4.8,0.6-10.4-0.4-16-3.3c-4.1-2.1-8.5-5.3-11.2-9.2c-7.4,0-15.7-4.1-20-6.6
	c-3.3-2-5.8-4-7.4-6.1C218.9,196.9,210.7,189.4,205.2,182z M192,205.3c-35.7,49.6-96.5,48.1-97.3,48c-2.3-0.2-4.4,1-5.5,3.1
	c-1.1,2-0.9,4.4,0.5,6.3c10.3,12.7,21.3,23.4,32.5,32.5c5.3,1.1,38.7,5.8,71.7-32.5c2.1-2.4,5.7-2.6,8.1-0.5
	c2.4,2.1,2.6,5.7,0.5,8.1c-23.1,26.7-47.4,35.1-64.4,36.9c14.2,9.5,28.5,16.8,41.9,22.2c8.4-1.8,37-10.3,62.2-48.7
	c1.7-2.6,5.4-3.5,8.1-1.8s3.4,5.4,1.6,8.1c-19,29-39.8,42.6-54.5,48.9c29.9,9.7,52.2,10.5,54.1,10.6h0.2c1.1,0,2.2-0.4,3.1-0.9
	c1.6-1,35-22.8,59.3-83.9c-0.9,0-1.9,0.2-2.9,0.2c-12.6,0-27.2-2.5-35.1-12.4c-5.5,0.7-12-0.6-17.8-3.6c-4.8-2.5-8.5-5.7-11-9.5
	c-6.1,0.5-12.7-1.6-17.3-4.2c-4.6-2.5-8.4-5.7-10.4-9.4C206.7,223.5,197.5,214.5,192,205.3z"></path>
</svg>
